<svg height="512pt" viewBox="0 -46 512 512" width="512pt" xmlns="http://www.w3.org/2000/svg"><path d="m105 60c-8.289062 0-15-6.710938-15-15v-30c0-8.289062 6.710938-15 15-15s15 6.710938 15 15v30c0 8.289062-6.710938 15-15 15zm0 0" fill="#ff9100"/><path d="m332 75c0 8.398438-6.597656 15-15 15h-62c-8.402344 0-15-6.601562-15-15 0-8.402344 6.597656-15 15-15h62c8.402344 0 15 6.597656 15 15zm0 0" fill="#714c2f"/><path d="m332 75c0 8.398438-6.597656 15-15 15h-46v-30h46c8.402344 0 15 6.597656 15 15zm0 0" fill="#673416"/><path d="m418.699219 210-56.699219 150h-152l-105-37.5-105 22.5v-75c0-49.800781 40.199219-90 90-90l60-30 55.800781 30 30 90h66.199219v-67.800781c0-47.097657 26.101562-89.699219 68.402344-110.699219 3.898437-2.101562 8.699218-2.101562 12.898437 0 4.199219 1.800781 7.199219 5.398438 8.097657 9.902344l24.601562 97.5zm0 0" fill="#f03800"/><path d="m418.699219 210-56.699219 150h-91v-90h31v-67.800781c0-47.097657 26.101562-89.699219 68.402344-110.699219 3.898437-2.101562 8.699218-2.101562 12.898437 0 4.199219 1.800781 7.199219 5.398438 8.097657 9.902344l24.601562 97.5zm0 0" fill="#cd0000"/><path d="m180 345c0 41.421875-33.578125 75-75 75s-75-33.578125-75-75 33.578125-75 75-75 75 33.578125 75 75zm0 0" fill="#714c2f"/><path d="m105 390c-24.8125 0-45-20.1875-45-45s20.1875-45 45-45 45 20.1875 45 45-20.1875 45-45 45zm0 0" fill="#fff4ca"/><path d="m407 120h-60c-24.8125 0-45-20.1875-45-45s20.1875-45 45-45h60c8.289062 0 15 6.710938 15 15v60c0 8.289062-6.710938 15-15 15zm0 0" fill="#f03800"/><path d="m105 30c-41.351562 0-75 33.648438-75 75v30h150v-30c0-41.351562-33.648438-75-75-75zm0 0" fill="#fdbf00"/><path d="m225 180h-195c-16.570312 0-30-13.429688-30-30s13.429688-30 30-30h165c24.851562 0 45 20.148438 45 45 0 8.285156-6.714844 15-15 15zm0 0" fill="#714c2f"/><path d="m210 345v15h-195c-8.402344 0-15-6.601562-15-15 0-28.800781 11.699219-55.199219 30.902344-74.101562 18.898437-19.199219 45.296875-30.898438 74.097656-30.898438s55.199219 11.699219 74.097656 30.898438c19.203125 18.902343 30.902344 45.300781 30.902344 74.101562zm0 0" fill="#ff641a"/><path d="m437 210h-15c-41.527344 0-60 55.152344-60 87.300781v62.699219h15l60-60h60c8.402344 0 15-6.601562 15-15 0-40.289062-32.464844-75-75-75zm0 0" fill="#f03800"/><path d="m437 420c-41.351562 0-75-33.648438-75-75s33.648438-75 75-75 75 33.648438 75 75-33.648438 75-75 75zm0 0" fill="#673416"/><path d="m437 300c-24.8125 0-45 20.1875-45 45s20.1875 45 45 45 45-20.1875 45-45-20.1875-45-45-45zm0 0" fill="#fff4ca"/><path d="m452 345c0 8.285156-6.714844 15-15 15s-15-6.714844-15-15 6.714844-15 15-15 15 6.714844 15 15zm0 0" fill="#673416"/></svg>